<svg width="30" height="30" viewBox="0 0 30 30" fill="none" xmlns="http://www.w3.org/2000/svg">
<path d="M14.9988 21.25C15.6618 21.25 16.2977 20.9866 16.7665 20.5178C17.2354 20.0489 17.4988 19.413 17.4988 18.75C17.4988 18.087 17.2354 17.4511 16.7665 16.9822C16.2977 16.5134 15.6618 16.25 14.9988 16.25C14.3357 16.25 13.6999 16.5134 13.231 16.9822C12.7622 17.4511 12.4988 18.087 12.4988 18.75C12.4988 19.413 12.7622 20.0489 13.231 20.5178C13.6999 20.9866 14.3357 21.25 14.9988 21.25ZM22.4988 10C23.1618 10 23.7977 10.2634 24.2665 10.7322C24.7354 11.2011 24.9988 11.837 24.9988 12.5V25C24.9988 25.663 24.7354 26.2989 24.2665 26.7678C23.7977 27.2366 23.1618 27.5 22.4988 27.5H7.49878C6.83574 27.5 6.19985 27.2366 5.73101 26.7678C5.26217 26.2989 4.99878 25.663 4.99878 25V12.5C4.99878 11.837 5.26217 11.2011 5.73101 10.7322C6.19985 10.2634 6.83574 10 7.49878 10H8.74878V7.5C8.74878 5.8424 9.40726 4.25269 10.5794 3.08058C11.7515 1.90848 13.3412 1.25 14.9988 1.25C15.8195 1.25 16.6323 1.41166 17.3905 1.72575C18.1488 2.03984 18.8378 2.50022 19.4182 3.08058C19.9986 3.66095 20.4589 4.34994 20.773 5.10823C21.0871 5.86651 21.2488 6.67924 21.2488 7.5V10H22.4988ZM14.9988 3.75C14.0042 3.75 13.0504 4.14509 12.3471 4.84835C11.6439 5.55161 11.2488 6.50544 11.2488 7.5V10H18.7488V7.5C18.7488 6.50544 18.3537 5.55161 17.6504 4.84835C16.9472 4.14509 15.9933 3.75 14.9988 3.75Z" fill="#3671E9"/>
</svg>
